<?xml version="1.0" standalone="no"?>
<!DOCTYPE svg PUBLIC "-//W3C//DTD SVG 20010904//EN"
 "http://www.w3.org/TR/2001/REC-SVG-20010904/DTD/svg10.dtd">
<svg version="1.0" xmlns="http://www.w3.org/2000/svg"
 width="250.000000pt" height="250.000000pt" viewBox="0 0 250.000000 250.000000"
 preserveAspectRatio="xMidYMid meet">
<metadata>
Created by potrace 1.11, written by Peter Selinger 2001-2013
</metadata>
<g transform="translate(0.000000,250.000000) scale(0.100000,-0.100000)"
fill="#000000" stroke="none">
<path d="M1000 1747 c0 -4 46 -88 103 -185 57 -97 152 -262 212 -367 59 -104
114 -196 120 -203 14 -15 7 -25 223 349 56 97 102 178 102 181 0 6 -391 -109
-398 -117 -3 -3 36 -5 86 -5 51 0 92 -3 92 -6 0 -7 -100 -184 -104 -184 -3 0
-62 73 -256 320 -167 213 -180 228 -180 217z"/>
<path d="M1033 1508 c-21 -27 -305 -529 -302 -532 4 -4 361 100 389 112 8 4
-27 8 -77 10 -51 1 -93 5 -93 7 0 2 23 45 52 95 40 72 54 88 63 78 6 -7 72
-89 145 -183 253 -321 282 -356 287 -351 3 3 1 11 -5 18 -10 13 -227 388 -368
635 -38 67 -72 123 -75 123 -4 0 -11 -6 -16 -12z"/>
</g>
</svg>
