<svg xmlns="http://www.w3.org/2000/svg" width="64" height="81" viewBox="0 0 64 81"><g fill="none" fill-rule="evenodd" stroke-width="2"><path stroke="#006CA7" d="M20.31 21.981c-1.702-2.175-2.703-4.845-2.703-7.73C17.607 6.932 24.052 1 32 1c7.95 0 14.394 5.933 14.394 13.25 0 2.956-1.051 5.687-2.83 7.89"/><path stroke="#8F908C" d="M40.188 70.887c.732-1.072 1.464-2.279 2.486-3.485 4.533-6.03 6.726-6.299 12.43-7.102 1.023-.134 2.047-.268 3.217-.537 3.947-.536 4.679-2.278 4.679-3.35 0-1.206-.732-2.278-2.194-3.35-2.485-1.743-6.872-3.083-11.113-2.01-4.386.938-6.727 2.144-8.773 3.215-1.17.537-2.047 1.073-3.218 1.342V18.063c0-3.216-2.631-4.824-5.264-4.824-1.462 0-2.778.536-3.948 1.34-.877.67-1.755 2.01-1.755 4.021v13.825c-1.022-.403-2.048-.671-3.216-.671-2.487 0-4.241.938-4.973 2.546-.877-.401-2.047-.535-3.217-.535-2.778 0-5.849 1.608-5.849 4.422v.67c-.732-.267-1.608-.402-2.632-.402-1.461 0-2.925.402-3.947 1.206C2.023 40.33 1 41.538 1 43.68v21.845C1 72.495 6.702 80 19.132 80c14.329-.134 17.109-3.217 21.056-9.113zM9.857 38.831v8.901m8.857-14.464v11.126m7.75-13.352V42.17"/></g></svg>